<svg xmlns="http://www.w3.org/2000/svg" width="337" height="35" viewBox="0 0 337 35">
    <g fill="none" fill-rule="evenodd">
        <path fill="#00274C" d="M58.203 34.813h.503V.153h-.504z"/>
        <path fill="#FFCB05" d="M24.234 28.762l-9.928-13.565v9.87h3.947v9.745H0v-9.746h3.701V9.895H0V.154h14.341l9.893 13.662L34.126.154h14.337v9.741H44.76v15.171h3.701v9.747H30.21v-9.747h3.945v-9.868z"/>
        <path fill="#00274C" d="M205.287 34.803v-.395c.5-.035.886-.074.886-.48 0-.145-.05-.302-.09-.434l-.214-.748h-2.588l-.23.63c-.048.162-.092.304-.092.46 0 .518.547.552.996.572v.395h-3.023v-.395c.772-.035 1.02-.187 1.3-.958l1.987-5.445-.118-.175c.85-.279 1.089-.41 1.455-.679.146.498.166.561.328 1.084l1.626 4.985c.293.884.43 1.104 1.206 1.188v.395h-3.429zm-.663-5.89l-1.074 3.043h2.109l-1.035-3.042zm-25.547 4.258c-.322.528-1.103 1.827-3.13 1.827-2.207 0-3.642-1.627-3.642-3.77 0-1.987 1.215-3.94 3.691-3.94 1.304 0 1.998.547 2.421.883l.504-.453.039 2.22-.328.065c-.126-.43-.312-.772-.79-1.29-.225-.234-.767-.717-1.533-.717-1.329 0-2.374 1.079-2.374 2.983 0 1.611.86 3.13 2.559 3.13 1.28 0 1.762-.718 2.149-1.264l.434.326zm1.24 1.632v-.395c.83-.074.84-.25.84-.958.01-.259.01-.518.01-.776v-3.076c0-.484 0-.958-.035-1.187-.038-.44-.248-.498-.815-.552v-.395h3.145v.395c-.616.063-.844.083-.918.488-.054.234-.064.777-.064 1.217v1.01c.635.034 1.075.053 1.69.053.625 0 1.118-.02 1.743-.053v-1.225c-.01-1.344-.024-1.398-1.02-1.49v-.395h3.183v.395c-.855.102-.855.117-.855 1.508v3.102c0 .282.01 1.215.044 1.43.05.386.269.459.811.512v.392h-3.183v-.392c.737-.082.932-.106.996-.61.023-.215.023-.492.023-1.02v-1.347c-.58-.02-1.068-.054-1.668-.054-.635 0-1.134.019-1.764.054v1.347c.01 1.528.03 1.528.978 1.63v.396h-3.14v-.005zm9.053 0v-.395c.718-.094.865-.177.874-.943v-3.911c-.009-1.529-.009-1.568-.874-1.695v-.395h3.053v.395c-.86.083-.86.127-.86 1.695v2.963c0 .26.01 1.084.028 1.3.049.443.259.55.832.59v.396h-3.053zm-20.907 0v-.395c.722-.094.863-.177.873-.943v-3.911c-.01-1.529-.01-1.568-.874-1.695v-.395h3.047v.395c-.859.083-.859.127-.859 1.695v2.963c0 .26.009 1.084.029 1.3.053.443.263.55.83.59v.396h-3.046zm-4.62 0v-.395c.922-.06.922-.103.932-1.465v-3.688l-2.563 5.64h-.65l-2.358-5.718-.054 4.317c0 .717.089.855.865.913v.396h-2.544v-.395c.59-.035.82-.113.859-.612.02-.195.054-.815.064-1.22l.102-3.076c.01-.24.01-.591.01-.85 0-.727-.146-.781-.801-.791v-.395h2.31l2.285 5.571 2.519-5.571h2.232v.435c-.875.052-.883.146-.875 1.288v3.028c0 .497.01 1.122.045 1.494.039.542.249.645.83.698v.396h-3.208zm45.35 0v-.395c.602-.035.832-.04.914-.46.108-.483.137-4.84.147-5.6-.405-.377-.571-.45-1.06-.49v-.394h2.202c.615.873.748 1.069 1.832 2.412l2.046 2.534v-3.286c-.01-1.163-.039-1.225-1.207-1.265v-.395h2.895v.395c-.804.01-.873.176-.883 1.372l-.103 5.664h-.439l-.66-.82a58.763 58.763 0 0 0-.996-1.235l-2.895-3.58v3.804c0 1.187.079 1.231 1.207 1.343v.396h-3zm-61.23-3.682c0 2.539-1.728 3.872-3.67 3.872-2.14 0-3.804-1.543-3.804-3.882 0-2.002 1.342-3.814 3.701-3.804 2.226.01 3.774 1.592 3.774 3.814zm-3.665 3.193c.418-.009 1-.215 1.454-.908.518-.796.625-1.528.595-2.481-.028-.942-.292-1.758-.835-2.339-.233-.248-.697-.62-1.308-.6-.615 0-1.064.385-1.294.644-.523.591-.761 1.411-.761 2.359 0 .957.126 1.685.668 2.461.48.679 1.064.864 1.48.864zm4.403.084v.404h3.043v-.404c-.763-.074-.855-.143-.88-.948l.01-2.09h.811c.82 0 1.259.079 1.309.894h.351V29.83h-.351c-.04.791-.259.875-1.153.875h-.967v-2.545c.258-.034.405-.039.874-.039 1.436 0 1.895-.01 2.09 1.138h.36l-.115-1.796H148.7v.395c.528.053.762.083.835.425.049.23.059 1.04.059 1.334v2.572c0 .2-.01 1.089-.02 1.26-.024.805-.112.874-.874.947zm-63.081.356v-.4c.718-.094.86-.172.869-.943V29.5c-.009-1.524-.009-1.567-.869-1.69v-.395h3.047v.395c-.865.084-.865.123-.865 1.69v2.964c0 .258.01 1.084.035 1.299.05.448.26.55.83.59v.4H85.62zm32.329 0v-.4c.719-.094.865-.172.875-.943V29.5c-.01-1.524-.01-1.567-.875-1.69v-.395h3.047v.395c-.865.084-.865.123-.865 1.69v2.964c0 .258.01 1.084.035 1.299.049.448.259.55.83.59v.4h-3.047zm-41.269 0v-.4c.605-.03.835-.04.917-.455.103-.488.138-4.844.147-5.6-.41-.377-.576-.45-1.064-.489v-.395h2.206c.612.869.748 1.069 1.827 2.411l2.05 2.535v-3.286c-.01-1.162-.043-1.226-1.206-1.265v-.395h2.887v.395c-.802.005-.87.176-.879 1.373l-.108 5.663h-.434l-.654-.82c-.333-.42-.665-.83-.996-1.24l-2.902-3.575v3.804c0 1.186.084 1.226 1.206 1.343v.396H76.68zm35.205-2.29l.376-.039c.4 1.196 1.079 1.835 2.183 1.835.776 0 1.465-.331 1.465-1.117 0-.836-.802-1.168-1.153-1.31-.293-.117-.606-.214-.898-.327-.602-.22-1.734-.683-1.734-2.108 0-1.368 1.079-2.144 2.339-2.144.488 0 1.06.107 1.684.502l.444-.322.24 2.183-.366.073c-.123-.484-.215-.703-.508-1.089-.352-.453-.85-.668-1.43-.668-.782 0-1.236.376-1.236.956 0 .87.859 1.167 1.68 1.431.419.141.761.254 1.059.43.581.346 1.06.986 1.06 1.87 0 1.269-1.04 2.319-2.584 2.319-1 0-1.616-.395-1.898-.585l-.615-.44-.108-1.45zm12.065 2.29v-.313c.674-.015.865-.259.865-.84v-5.41h-.914c-.83 0-1.381-.034-1.445 1.279h-.381l.059-2.06h6.665l.064 2.06h-.387c-.064-1.313-.61-1.279-1.44-1.279h-.913v5.41c0 .581.186.825.86.84v.313h-3.033zM71.069 27.41v.4c-.981.069-.981.103-.992 1.66v1.724c0 .899.02 1.665.494 2.354.377.547 1.011.614 1.333.614 1.05 0 1.631-.54 1.88-1.41.205-.684.215-1.973.215-2.822 0-.274 0-1.148-.01-1.383-.039-.668-.385-.688-1.04-.737v-.395h2.799v.395c-.69-.015-.836.141-.876.874-.008.171-.092 2.212-.102 2.525-.024.556-.054 1.109-.175 1.64-.504 1.977-2.422 2.081-2.935 2.081-.405 0-1.235-.064-1.924-.523-1.094-.737-1.104-1.836-1.104-3.022V29.72c-.01-.786-.01-1.144-.028-1.329-.064-.458-.294-.546-.845-.581v-.395h3.31v-.005zm26.016 0v.4c-.707.103-.806.298-1.406 1.754l-2.237 5.331h-.394l-2.003-5.415c-.498-1.391-.561-1.558-1.299-1.67v-.4h3.482v.4c-.597.02-.982.039-.982.464 0 .21.054.386.254.996l1.279 3.735 1.495-3.856c.092-.26.215-.597.215-.778 0-.531-.518-.556-.978-.561v-.4h2.574zm34.79 7.344v-.4c.576-.059.796-.079.938-.225.17-.166.17-.351.176-1.153v-1.288l-1.949-3.028c-.528-.791-.542-.811-1.245-.85v-.41h3.819v.41c-.773.02-1.114.039-1.114.391 0 .2.136.429.327.741l1.118 1.837 1.04-1.826c.186-.367.294-.582.294-.752 0-.352-.304-.356-.816-.391v-.41h2.866v.41c-.738.02-.952.24-1.792 1.606l-1.142 1.915v1.528c0 1.334.005 1.436 1.099 1.495v.395h-3.619v.005zm-28.501 0c0-.533.089-1.401.151-1.905h-.351c-.254 1.314-.987 1.25-2.052 1.25-.976 0-1.17-.263-1.17-.741v-2.052h.79c.903 0 1.162.079 1.162.899h.352v-2.422h-.352c-.068.654-.205.87-1.151.87h-.802v-2.59h.904c1.245 0 1.694.095 1.86 1.09h.332l-.044-1.743h-5.224v.395c.527.054.756.084.83.43.053.23.059 1.035.059 1.329v2.577c0 .2-.006 1.084-.016 1.26-.025.8-.117.874-.873.948v.405h5.595zm97.192-3.194v.396c-.663.039-.663.229-.689 1.62v.553c-.566.351-1.38.858-2.82.858-2.526 0-3.732-1.913-3.732-3.832 0-2.349 1.588-3.881 3.584-3.881 1.25 0 1.972.468 2.573.834l.382-.434.059 2.29-.3.059a3.669 3.669 0 0 0-.927-1.495c-.244-.24-.712-.547-1.455-.547-1.279 0-2.344 1.079-2.344 3.194 0 1.684.835 3.13 2.262 3.13.815 0 1.235-.572 1.274-.616.132-.195.16-.375.146-.693-.034-.937-.156-.957-.972-1.04v-.396h2.96zm-93.784-.746c.196.044.48.077.684.077.835 0 1.465-.653 1.499-1.24.044-.85-.386-1.592-1.734-1.592-.19 0-.302.01-.448.045v2.71zm0 1.601c.01 1.684.01 1.909.894 1.934v.405h-3.066v-.405c.79-.064.874-.191.884-.981.008-.304.008-.646.008-.943v-2.656c0-.88-.008-1.193-.038-1.431-.054-.405-.254-.484-.854-.533v-.395l3.325.01c1.811 0 2.382.864 2.382 1.885 0 .707-.44 1.625-1.45 1.938l1.304 2.26c.469.864.718 1.06 1.314 1.143v.249c-.161.015-.317.02-.484.02-1.382 0-1.954-.474-2.535-1.714l-.405-.86c-.439-.927-.581-.869-1.279-.884v.958zM72.177 3.094h.064l5.938 19.262h2.612L86.85 3.094h.059v19.262h2.758V.696h-4.555L79.59 18.875h-.059L74.072.696H69.6v21.66h2.578zM93.569 22.356h2.758V.696H93.57zM112.588 6.662c.273-4.198-1.377-6.42-5.67-6.42-4.257 0-6.957 1.743-6.957 7.862v6.122c0 8.399 4.14 8.579 6.84 8.579 1.406 0 6.242 0 6.119-6.84h-2.851c-.03 4.227-2.579 4.531-3.419 4.531-2.129 0-3.871-.63-3.871-5.942V8.762c0-3.72.541-4.257.63-4.497.092-.302.991-1.679 3.271-1.679.571 0 1.86.239 2.431.928.566.687.659 1.919.63 3.148h2.847zM118.471 22.356v-9.902h7.589v9.902h2.759V.696h-2.759v9.36h-7.589V.696h-2.764v21.66zM132.871 22.356h2.759V.696h-2.759zM152.759 6.482c.181-4.526-2.041-6.24-6.719-6.24-4.59 0-6.811 2.763-6.811 7.08v7.114c0 5.997 2.221 8.369 6.811 8.369 2.787 0 4.859-.659 6.631-1.621V10.652h-6.754v2.403h3.995v6.479c-.57.42-1.894.962-3.872.962-2.612 0-3.989-1.201-3.989-5.942v-7.32c0-4.532 3.12-4.678 3.989-4.678 2.787 0 3.838 1.378 3.838 3.926h2.88zM154.502 22.356h2.788l1.621-5.161h8.369l1.558 5.161h3.09l-7.05-21.66h-3.505l-6.87 21.66zm12.027-7.564H159.6l3.389-11.547h.062l3.478 11.547zM186.001.696v18.54h-.059L177.51.696h-3.901v21.66h2.46V3.572h.059l8.55 18.784h3.785V.696zM200.551 3.094h3.809c.601 0 3.063.331 3.063 3.632 0 3.389-2.702 3.686-3.844 3.686h-3.028V3.095zm0 19.262v-9.541h3.629c2.221 0 6.059-1.02 6.059-5.942 0-5.098-3.12-6.177-6.03-6.177h-6.422v21.66h2.764zM212.671 14.436c0 5.997 2.216 8.369 6.811 8.369 4.59 0 6.807-2.372 6.807-8.369V.696h-2.759v13.858c0 4.741-1.44 5.942-4.048 5.942-2.612 0-4.052-1.201-4.052-5.942V.696h-2.759v13.74zM232.769 12.215h2.939c2.822 0 4.95.6 4.95 4.047 0 1.592-1.048 3.692-3.988 3.692h-3.901v-7.739zm0-9.121h3.901c2.31 0 3.33 1.47 3.33 3.271 0 2.1-1.05 3.418-3.208 3.447h-4.023V3.095zm4.198 19.262c2.462 0 6.514-.542 6.514-6.094 0-2.968-1.352-4.828-4.444-5.19v-.147c2.794-.63 3.722-2.431 3.722-5.131 0-.42-.118-1.709-.869-2.881-.811-1.202-1.831-2.217-4.83-2.217h-7.05v21.66h6.958zM257.431 22.356v-2.402h-7.948V.696h-2.764v21.66zM259.048 22.356h2.763V.696h-2.763zM265.077 15.906c-.057 2.07-.057 6.958 6.334 6.899 3.569 0 6.719-1.469 6.719-6.03 0-6.87-9.721-6.181-9.721-10.952 0-2.34 1.678-3.18 3.33-3.18 2.611 0 3.359 1.558 3.33 3.932h2.88c.181-4.409-2.04-6.333-6-6.333-3.629 0-6.358 2.04-6.358 5.884 0 6.509 9.716 5.966 9.716 10.766 0 2.583-1.68 3.51-3.867 3.51-1.772 0-3.632-.927-3.632-3.866v-.63h-2.73zM283.95 22.356v-9.902h7.588v9.902h2.763V.696h-2.763v9.36h-7.588V.696h-2.759v21.66zM298.35 22.356h2.759V.696h-2.759zM317.52.696v18.54h-.059L309.03.696h-3.898v21.66h2.457V3.572h.063l8.55 18.784h3.779V.696zM336.9 6.482c.18-4.526-2.041-6.24-6.719-6.24-4.59 0-6.812 2.763-6.812 7.08v7.114c0 5.997 2.222 8.369 6.812 8.369 2.788 0 4.858-.659 6.63-1.621V10.652h-6.752v2.403h3.988v6.479c-.566.42-1.888.962-3.866.962-2.612 0-3.99-1.201-3.99-5.942v-7.32c0-4.532 3.12-4.678 3.99-4.678 2.788 0 3.838 1.378 3.838 3.926h2.881z"/>
    </g>
</svg>
